<svg id="Layer_1" data-name="Layer 1" xmlns="http://www.w3.org/2000/svg" viewBox="0 0 11.25 11.25"><defs><style>.cls-1,.cls-3{fill:#fff;}.cls-2{fill:#0e5ca6;}.cls-3{stroke:#0e5ca6;stroke-miterlimit:10;stroke-width:0.15px;}</style></defs><title>collapse_all_blue0</title><polygon class="cls-1" points="9.66 10.88 1.59 10.88 1.59 0.38 7.67 0.38 9.66 2.36 9.66 10.88"/><path class="cls-2" d="M7.3,0H1.22V11.25H10V2.73Zm.11.64,2,2h-2ZM9.66,10.87H1.59V.38H7V3H9.66Z"/><rect class="cls-3" x="2.38" y="3.67" width="2.32" height="0.46"/><rect class="cls-3" x="5.63" y="5.53" width="3.25" height="0.46"/><rect class="cls-3" x="5.63" y="6.46" width="3.25" height="0.46"/><rect class="cls-3" x="5.16" y="3.67" width="3.72" height="0.46"/><rect class="cls-3" x="5.16" y="4.6" width="3.72" height="0.46"/><polygon class="cls-3" points="4.23 5.53 4.23 5.06 3.76 5.06 3.76 4.6 3.3 4.6 3.3 5.06 2.84 5.06 2.84 5.53 2.38 5.53 2.38 6.46 2.84 6.46 2.84 5.99 3.3 5.99 3.3 10.18 3.76 10.18 3.76 5.99 4.23 5.99 4.23 6.46 4.69 6.46 4.69 5.53 4.23 5.53"/></svg>