<svg id="Layer_1" data-name="Layer 1" xmlns="http://www.w3.org/2000/svg" viewBox="0 0 11.25 11.25"><defs><style>.cls-1{fill:#fff;}.cls-2{fill:#0e5ca6;}</style></defs><title>removesearch_mark_blue0</title><circle class="cls-1" cx="8.67" cy="8.67" r="2.58"/><circle class="cls-1" cx="3.41" cy="3.42" r="2.94"/><path class="cls-2" d="M8.67,6.09A2.54,2.54,0,0,0,7,6.69,1.82,1.82,0,0,0,6.69,7a2.54,2.54,0,0,0-.6,1.64A2.58,2.58,0,1,0,8.67,6.09Zm1.55,3.57-.56.56-1-1-1,1-.55-.56,1-1-1-1,.11-.11.33-.33.11-.11,1,1,1-1,.56.55-1,1Z"/><path class="cls-2" d="M6,5.65A3.43,3.43,0,1,0,5.65,6l1,1A1.82,1.82,0,0,1,7,6.69Zm-2.58.7A2.94,2.94,0,1,1,6.35,3.42,2.93,2.93,0,0,1,3.41,6.35Z"/><polygon class="cls-2" points="3.62 4.08 3.73 4.19 3.93 4.19 3.62 3.88 3.62 4.08"/><path class="cls-2" d="M1.21,4.15s-.05,0-.05.08v.23a.07.07,0,0,0,.05.07H3.12s0,0,0-.07V4.23s0-.08,0-.08Z"/><path class="cls-2" d="M5.65,2.69l-.53-.52a.09.09,0,0,0-.13,0L3.46,3.57h0v.43l-.18.19a.11.11,0,0,0,0,.08s0,.06,0,.07l.21.12,0,0a.11.11,0,0,0,.07,0l.13-.14h.52L5.65,2.82A.11.11,0,0,0,5.65,2.69ZM3.73,4.19l-.11-.11v-.2l.31.31Zm.44,0-.51-.5L5.05,2.37l.39.39Z"/></svg>